PathFileType	4	(X/Y/Z)	C:\Users\dbl\Desktop\20210112\20210112\bx_n_0_501.trc
DataRate	CameraRate	NumFrames	NumMarkers	Units	OrigDataRate	OrigDataStartFrame	OrigNumFrames
50.00	50.00	       11	43	mm	50.00	212	       339
Frame#	Time	Top.Head			R.Acromium			L.Acromium			Sternum			R.ASIS			L.ASIS			V.Sacral			R.Thigh.Upper			R.Thigh.Front			R.Thigh.Rear			R.Knee.Lat			R.Knee.Med			R.Shank.Upper			R.Shank.Front			R.Shank.Rear			R.Ankle.Lat			R.Midfoot.Lat			R.Toe.Lat			R.Toe.Tip			R.Toe.Med			R.Ankle.Med			R.Midfoot.Sup			R.Heel			L.Thigh.Upper			L.Thigh.Front			L.Thigh.Rear			L.Knee.Lat			L.Knee.Med			L.Shank.Upper			L.Shank.Front			L.Shank.Rear			L.Ankle.Lat			L.Midfoot.Lat			L.Toe.Lat			L.Toe.Tip			L.Toe.Med			L.Ankle.Med			L.Midfoot.Sup			L.Heel			origin1 front left			origin2 front right			origin 3 back right			origin 4 back leftt			
		X1	Y1	Z1	X2	Y2	Z2	X3	Y3	Z3	X4	Y4	Z4	X5	Y5	Z5	X6	Y6	Z6	X7	Y7	Z7	X8	Y8	Z8	X9	Y9	Z9	X10	Y10	Z10	X11	Y11	Z11	X12	Y12	Z12	X13	Y13	Z13	X14	Y14	Z14	X15	Y15	Z15	X16	Y16	Z16	X17	Y17	Z17	X18	Y18	Z18	X19	Y19	Z19	X20	Y20	Z20	X21	Y21	Z21	X22	Y22	Z22	X23	Y23	Z23	X24	Y24	Z24	X25	Y25	Z25	X26	Y26	Z26	X27	Y27	Z27	X28	Y28	Z28	X29	Y29	Z29	X30	Y30	Z30	X31	Y31	Z31	X32	Y32	Z32	X33	Y33	Z33	X34	Y34	Z34	X35	Y35	Z35	X36	Y36	Z36	X37	Y37	Z37	X38	Y38	Z38	X39	Y39	Z39	X40	Y40	Z40	X41	Y41	Z41	X42	Y42	Z42	X43	Y43	Z43	

212	4.220	-571.61475	82.75562	1826.93665	-599.16479	-97.32249	1521.30188	-623.76343	259.96106	1526.04565	-567.23956	82.94871	1315.66064	-667.61432	-21.71693	1045.05127	-668.33191	222.11339	1060.43823	-866.03192	80.42133	1077.72107	-735.65558	-84.66349	874.15961	-650.70801	-15.07545	811.32568	-738.98260	-70.87006	756.77234	-738.98517	-41.89011	615.05524				-738.99780	-38.88911	568.08612				-773.95972	-53.91276	484.79553				-641.63336	-60.24743	162.89215	-599.88593	-62.46712	158.54175	-546.97107	-11.33129	161.91963	-601.87787	37.00358	167.56294	-725.34283	69.01472	217.37096	-677.72815	56.92001	159.37260				-749.56274	271.79785	876.73016	-650.66364	203.75098	798.49017				-767.16852	245.91595	639.98236							-707.70795	192.40317	536.96979	-789.47424	256.08505	498.03195																																					
213	4.240	-578.86572	81.61832	1829.40698	-604.31274	-98.35283	1523.36938	-628.77814	259.54996	1527.81323	-569.29688	82.83602	1318.19592	-665.78534	-21.41213	1045.57300	-666.58838	222.09167	1061.02405	-864.54279	80.45367	1076.98413	-733.62762	-84.71575	873.99695	-649.33453	-15.26563	811.40521	-737.66602	-70.93174	756.63287	-737.88043	-42.43081	615.15546				-738.29535	-39.53559	568.16614				-773.35083	-54.17142	484.88217				-641.63336	-60.24743	162.89215	-599.61072	-62.31501	158.38309	-546.95551	-11.25914	161.73993	-601.71320	37.37350	167.75543	-725.16443	68.77786	217.35812	-677.84534	56.89575	159.66656				-747.96399	272.35339	877.54163	-649.49890	203.73119	798.17383				-765.87366	245.39903	640.20276							-706.39624	192.16289	536.91425	-788.55463	255.90675	498.27759																																					
214	4.260	-586.46014	80.84055	1831.75696	-608.94818	-98.86166	1524.86426	-633.60004	259.00922	1529.93127	-571.25769	82.40984	1320.53357	-664.25146	-21.31729	1046.31885	-665.43958	222.11420	1061.37317	-863.57184	80.11119	1076.28027	-731.78046	-85.35960	874.53894	-647.66931	-14.97283	811.02692	-736.18768	-71.02602	756.59509	-736.91986	-42.53251	615.10205				-737.45770	-39.99312	568.28467				-772.52686	-54.18468	484.49509				-641.81689	-60.58530	162.60323	-599.59283	-62.41604	158.54895	-546.87219	-11.49169	161.99188	-601.81445	37.04967	167.83208	-724.98651	68.82307	217.60927	-677.48669	56.91367	159.30414				-746.42206	271.87039	877.02527	-647.43884	203.70964	798.50128				-764.87805	245.61966	640.62189							-705.47479	192.14151	536.99292	-787.99048	255.93326	498.66388																																					
215	4.280	-593.49170	79.67651	1833.71375	-613.11401	-98.97450	1526.63647	-638.33716	258.59018	1531.43054	-573.24524	82.26912	1322.67798	-662.94574	-21.61407	1046.92993	-664.58240	222.14972	1062.08801	-862.27142	79.88583	1075.68982	-730.29932	-85.40137	874.63177	-646.16846	-15.28793	810.91467	-735.03552	-71.28085	757.07690	-736.33551	-42.45536	614.88391				-737.01721	-39.66230	567.99719				-772.34009	-54.47927	484.48093				-641.73236	-60.60171	162.70032	-599.19019	-62.37433	158.61719	-546.81335	-11.50981	161.88062	-601.73993	37.04480	167.74185	-725.06372	68.98090	217.59798	-677.69739	56.83186	159.44615				-744.96515	271.72260	877.12799	-646.16602	204.01419	798.42285				-763.84314	245.53098	640.92773							-704.73547	191.98891	536.85333	-787.25970	255.67128	498.62228																																					
216	4.300	-600.78302	79.02290	1835.79382	-617.79199	-99.27906	1527.81995	-642.97107	258.45630	1533.07776	-575.38654	82.31853	1324.67712	-661.46307	-21.51386	1047.06116	-662.97516	222.60233	1062.77673	-861.16394	80.04260	1075.04089	-728.07104	-85.19084	874.30695	-645.00989	-15.02305	810.80463	-733.41327	-71.49702	757.19983	-735.41089	-42.85467	615.32794				-736.14355	-39.77962	567.89667				-772.15314	-54.63259	484.56738				-641.80017	-60.57661	162.85991	-599.88593	-62.46712	158.54175	-547.01941	-11.44134	162.16362	-601.65924	36.85899	167.81219	-724.99152	68.56416	217.67334	-677.75720	56.87416	159.79762				-743.32880	271.62338	877.34113	-644.90637	204.15771	798.76514				-762.62067	245.04413	640.71680							-704.13251	192.20781	536.84027	-786.49823	255.49730	498.73651																																					
217	4.320	-607.74036	78.02628	1837.79126	-622.16821	-99.50249	1529.28296	-647.27277	258.29465	1534.32068	-576.73053	82.27264	1326.95850	-659.91620	-21.39195	1047.70068	-661.93622	222.23221	1063.13757	-859.86328	79.98325	1074.59094	-726.52240	-85.51896	874.78723	-643.26532	-15.16146	811.08014	-732.16827	-71.34429	757.28491	-734.51575	-43.01236	615.17480				-735.70325	-40.11378	567.94196				-771.69812	-54.83043	484.64938				-641.72443	-60.76037	162.84152	-599.55084	-62.29553	158.51897	-546.94257	-11.49915	162.08879	-601.74695	36.95882	168.01376	-724.75159	68.56646	217.57555	-677.84534	56.89575	159.66656							-643.30737	204.08080	798.69690				-761.77045	245.05745	640.71881							-703.16541	192.11299	536.99152	-785.76257	255.21640	498.80170																																					
218	4.340	-614.34918	77.30045	1839.36194	-626.31079	-99.60405	1530.59070	-652.20721	257.31924	1535.52417	-578.79895	82.50488	1328.90515	-658.39520	-21.65122	1048.41943	-660.82233	222.23456	1063.53467	-858.97284	79.78802	1074.02515	-724.75067	-85.37225	874.94122	-642.18439	-14.57582	810.48206	-730.60394	-71.19622	757.21387	-733.62427	-43.52438	615.34106				-735.05878	-40.25074	568.01813				-771.12903	-55.12101	484.63074				-641.87366	-60.89967	162.68318	-599.40271	-62.25848	158.45135	-547.38037	-11.87673	162.10338	-601.61639	36.84249	168.28664	-724.61884	68.39963	217.78539	-677.75720	56.87416	159.79762							-642.05707	204.08487	798.53375				-760.83496	245.01463	641.17615							-702.52472	192.06058	537.23236	-784.91931	255.20172	499.00034																																					
219	4.360	-620.86792	76.63242	1841.14502	-630.24414	-99.89322	1531.52063	-656.40955	257.51132	1536.98853	-580.50476	82.40291	1331.00793	-657.34692	-21.50160	1048.75745	-660.04962	222.54921	1064.25574	-857.97681	79.94376	1073.50110	-723.00122	-85.34643	874.67468	-640.36511	-14.89029	810.66064	-729.59448	-71.71167	757.42999	-732.90320	-43.60935	615.21790				-734.64587	-40.38002	567.70599				-770.68024	-55.22687	484.82666				-641.90515	-60.85241	162.70468	-599.87872	-62.56192	158.69829	-547.27930	-12.05373	162.03287	-601.85211	36.82001	168.30011	-724.41931	68.48923	217.57809	-677.75720	56.87416	159.79762							-640.82538	204.20335	798.93890				-760.18427	245.26321	641.47467							-701.86163	191.81065	537.07831	-784.74078	255.31621	499.60327																																					
220	4.380	-627.06665	75.99504	1842.52527	-633.93683	-100.31613	1532.53931	-660.68121	257.59079	1538.01868	-582.42303	82.66570	1332.67700	-655.98596	-21.31479	1049.30493	-659.09369	223.12656	1064.80408	-857.10529	79.74836	1073.33875	-721.46808	-85.22884	874.59503	-639.62701	-14.80102	810.66132	-728.18372	-71.55022	757.61029	-732.27612	-43.32697	614.82245				-733.75812	-40.97015	567.95117				-770.33185	-55.21527	484.78479				-641.81879	-60.97654	162.48918	-599.56537	-62.44246	158.32539	-547.31519	-11.89204	161.91557	-601.98871	36.62691	168.17105	-724.61884	68.39963	217.78539	-677.44464	56.65102	160.13316							-639.91882	204.40520	798.68585				-759.06122	245.04150	641.50452							-701.32788	191.93472	537.01233	-784.08203	254.79326	499.31207																																					
221	4.400	-633.18048	75.33557	1843.97290	-638.02905	-100.19194	1533.43701	-664.67017	257.54013	1539.25562	-584.22009	83.09560	1334.36133	-654.72461	-20.88209	1049.58569	-658.22803	223.07753	1064.92847	-856.14880	79.63313	1072.84302	-720.08649	-85.61968	875.07941	-637.83258	-14.47644	811.01593	-727.47607	-71.64649	757.75177	-731.27582	-43.56161	615.22791				-733.37518	-40.82209	568.09338				-769.98303	-55.21308	484.86926				-641.93738	-60.98376	162.37318	-599.87872	-62.56192	158.69829	-547.21008	-11.91520	162.10228	-601.92395	36.54862	168.36116	-724.39575	68.28950	217.87666	-677.38745	56.67971	159.96269							-638.55261	204.54393	798.88281				-758.23914	244.76685	641.46436							-700.05573	192.10327	537.45752	-783.60358	254.88309	499.49210																																					
222	4.420	-638.84552	74.78411	1845.20984	-641.51947	-100.07832	1534.41968	-668.68640	257.48456	1540.04834	-585.86163	83.18838	1336.01807	-653.18317	-20.65681	1050.03650	-657.47491	223.09866	1064.95679	-855.04340	79.70009	1072.32178	-718.67468	-85.68797	874.98694	-637.16516	-14.49809	810.88220	-725.88885	-71.22663	757.85352	-730.98346	-43.94059	615.48236				-732.73279	-41.09559	568.05573				-769.50848	-55.55531	485.27747				-642.07971	-61.17682	162.37827	-599.38562	-62.55116	158.48228	-547.38898	-12.02409	162.34143	-601.94855	36.42702	168.53720	-724.39575	68.28950	217.87666	-677.24127	56.65577	160.40663							-637.39929	204.93513	799.21277				-757.45892	244.52887	641.45844							-699.85638	192.13344	537.11511	-783.08679	255.15619	499.69608																																					
